<?xml version="1.0" standalone="no"?>
<!DOCTYPE svg PUBLIC "-//W3C//DTD SVG 20010904//EN"
 "http://www.w3.org/TR/2001/REC-SVG-20010904/DTD/svg10.dtd">
<svg version="1.0" xmlns="http://www.w3.org/2000/svg"
 width="700.000000pt" height="700.000000pt" viewBox="0 0 700.000000 700.000000"
 preserveAspectRatio="xMidYMid meet">
<metadata>
Created by potrace 1.14, written by Peter Selinger 2001-2017
</metadata>
<g transform="translate(0.000000,700.000000) scale(0.100000,-0.100000)"
fill="#000000" stroke="none">
<path d="M2537 5754 c-1 -1 -38 -4 -82 -8 -551 -43 -1062 -382 -1323 -878
-105 -199 -152 -363 -186 -653 -3 -22 -5 -41 -6 -41 0 -1 -34 -18 -76 -38
-297 -141 -552 -395 -703 -701 -114 -229 -155 -403 -155 -655 0 -162 6 -240
24 -310 5 -19 11 -46 14 -60 12 -65 63 -205 111 -305 194 -399 565 -701 995
-810 90 -23 204 -42 275 -45 125 -6 4113 -3 4185 3 271 22 554 131 775 298
142 106 318 297 385 417 8 15 18 29 21 32 3 3 28 52 56 110 76 157 123 317
141 475 9 78 8 316 -1 380 -50 351 -199 643 -451 890 -205 200 -440 329 -716
393 -74 18 -114 24 -215 37 -11 1 -151 3 -311 4 l-291 1 -28 73 c-71 186 -175
330 -325 448 -140 112 -342 196 -540 225 -30 4 -58 9 -62 10 -5 1 -26 2 -47 3
-36 1 -44 7 -92 69 -57 72 -187 205 -258 262 -245 198 -574 335 -881 366 -60
6 -228 12 -233 8z m218 -447 c11 -2 43 -7 70 -11 68 -11 242 -69 318 -107 187
-94 365 -251 480 -425 37 -55 67 -105 67 -110 1 -5 9 -19 20 -32 18 -22 25
-23 80 -17 345 38 619 -86 747 -338 33 -64 68 -181 77 -256 5 -41 15 -104 21
-137 5 -21 6 -21 437 -21 392 0 578 -6 598 -18 4 -3 25 -7 46 -11 22 -3 82
-22 134 -41 250 -93 456 -273 587 -513 49 -92 95 -223 108 -315 4 -22 8 -51
11 -65 6 -32 6 -217 0 -250 -3 -14 -7 -41 -10 -60 -10 -67 -47 -184 -82 -258
-146 -318 -428 -540 -783 -619 -70 -15 -246 -17 -2139 -18 -1135 0 -2098 3
-2140 7 -231 24 -470 140 -642 311 -177 175 -284 393 -315 637 -7 57 -7 216 0
255 3 17 8 46 11 65 10 67 56 205 91 275 58 114 122 204 213 295 143 143 295
230 510 291 110 31 135 44 124 61 -10 15 -12 324 -4 378 5 30 12 69 15 86 2
17 16 69 31 115 145 463 542 790 1029 848 55 6 243 5 290 -2z"/>
<path d="M2952 3133 l3 -858 215 0 215 0 3 858 2 857 -220 0 -220 0 2 -857z"/>
<path d="M2289 3550 c-4 -22 -3 -1264 1 -1269 4 -6 410 -8 430 -2 4 1 5 1254
1 1271 0 3 -98 5 -216 5 -118 0 -215 -2 -216 -5z"/>
<path d="M1624 3106 c-2 -6 -3 -196 -2 -421 l3 -410 215 0 215 0 3 421 2 420
-216 1 c-149 0 -217 -3 -220 -11z"/>
</g>
</svg>
