<?xml version="1.0" standalone="no"?>
<!DOCTYPE svg PUBLIC "-//W3C//DTD SVG 20010904//EN"
 "http://www.w3.org/TR/2001/REC-SVG-20010904/DTD/svg10.dtd">
<svg version="1.0" xmlns="http://www.w3.org/2000/svg"
 width="512.000000pt" height="512.000000pt" viewBox="0 0 512.000000 512.000000"
 preserveAspectRatio="xMidYMid meet">
<metadata>
Created by potrace 1.14, written by Peter Selinger 2001-2017
</metadata>
<g transform="translate(0.000000,512.000000) scale(0.100000,-0.100000)"
fill="#000000" stroke="none">
<path d="M0 2560 l0 -2560 2560 0 2560 0 0 2560 0 2560 -2560 0 -2560 0 0
-2560z m2765 1347 c39 -13 340 -126 670 -251 654 -247 655 -247 655 -322 0
-41 -23 -89 -48 -103 -9 -5 -309 -119 -667 -254 -726 -274 -749 -281 -897
-258 -64 10 -221 65 -713 251 -347 131 -648 245 -667 253 -42 18 -68 60 -68
111 0 75 -2 74 695 336 352 133 665 248 695 256 85 21 257 12 345 -19z m-852
-1237 c218 -82 430 -156 471 -165 88 -18 258 -20 342 -4 32 7 245 81 472 166
l412 154 208 -77 c234 -88 272 -113 272 -178 0 -57 -23 -90 -77 -114 -109 -46
-1273 -482 -1314 -491 -65 -15 -227 -13 -289 4 -30 7 -341 122 -690 254 -538
204 -639 245 -662 271 -51 56 -31 142 39 173 44 20 405 156 414 157 4 0 185
-67 402 -150z m7 -772 c212 -80 417 -153 457 -162 89 -20 273 -21 363 -2 36 8
246 82 467 165 l401 152 214 -80 c236 -89 268 -110 268 -177 0 -55 -23 -89
-78 -112 -102 -44 -1249 -474 -1302 -488 -66 -18 -216 -20 -283 -5 -44 10
-1205 444 -1320 493 -53 23 -77 57 -77 108 0 47 24 84 67 103 100 44 410 156
423 153 8 -2 188 -69 400 -148z"/>
</g>
</svg>
