<svg height='100px' width='100px'  fill="#FFFFFF" xmlns="http://www.w3.org/2000/svg" xmlns:xlink="http://www.w3.org/1999/xlink" version="1.1" x="0px" y="0px" viewBox="0 0 32 32" enable-background="new 0 0 32 32" xml:space="preserve"><g><rect x="7.412" y="17.752" width="2" height="3.849"></rect><rect x="10.453" y="15.752" width="2" height="5.849"></rect><rect x="13.493" y="13.752" width="2" height="7.849"></rect><path d="M25,12.386h-2.142c-0.795-2.644-3.152-3.419-4.761-3.476c-1.411-1.998-3.737-3.217-6.205-3.217   c-4.077,0-7.413,3.217-7.576,7.231C1.741,13.997,0,16.536,0,19.346c0,3.838,3.141,6.96,7,6.96h18c3.859,0,7-3.122,7-6.96   S28.86,12.386,25,12.386z M25,24.306H7c-2.757,0-5-2.225-5-4.96c0-2.186,1.483-4.143,3.608-4.758l0.768-0.223l-0.055-0.904   c-0.005-0.076-0.011-0.152-0.011-0.229c0-3.054,2.504-5.538,5.582-5.538c1.965,0,3.809,1.049,4.81,2.737l0.322,0.543l0.628-0.057   c0.116-0.014,2.985-0.234,3.419,2.619l0.129,0.85H25c2.757,0,5,2.225,5,4.96S27.757,24.306,25,24.306z"></path></g><g display="none"><circle display="inline" fill="#FFFFFF" cx="11.917" cy="21.583" r="16"></circle><g display="inline"><rect x="6.013" y="21.584" fill="#FFFFFF" width="1.375" height="2.646"></rect><rect x="8.103" y="20.209" fill="#FFFFFF" width="1.375" height="4.021"></rect><rect x="10.193" y="18.834" fill="#FFFFFF" width="1.375" height="5.396"></rect><path fill="#FFFFFF" d="M8.905,14.884c1.232,0,2.344,0.638,2.973,1.706l0.513,0.871l0.985-0.23c0.116-0.027,0.214-0.04,0.299-0.04    c0.72,0,1.295,0.566,1.311,1.289l0.029,1.346h1.346h2.156c1.668,0,3.025,1.357,3.025,3.025c0,1.668-1.357,3.025-3.025,3.025h-13.2    c-1.668,0-3.025-1.357-3.025-3.025c0-1.333,0.899-2.526,2.186-2.902L5.53,19.64l-0.065-1.095l-0.006-0.087    c-0.003-0.041-0.007-0.081-0.007-0.122C5.453,16.433,7.001,14.884,8.905,14.884 M8.905,13.509c-2.666,0-4.827,2.161-4.827,4.827    c0,0.098,0.009,0.195,0.015,0.292c-1.829,0.534-3.176,2.227-3.176,4.222c0,2.42,1.98,4.4,4.4,4.4h13.2c2.42,0,4.4-1.98,4.4-4.4    c0-2.42-1.98-4.4-4.4-4.4h-2.156c-0.031-1.459-1.219-2.634-2.686-2.634c-0.212,0-0.415,0.03-0.613,0.076    C12.223,14.468,10.678,13.509,8.905,13.509L8.905,13.509z"></path></g></g><g display="none"><g display="inline"><path fill="#FFFFFF" d="M13.25,5.917c8.271,0,15,6.729,15,15s-6.729,15-15,15s-15-6.729-15-15S4.979,5.917,13.25,5.917     M13.25,4.917c-8.837,0-16,7.163-16,16c0,8.837,7.163,16,16,16c8.837,0,16-7.163,16-16C29.25,12.08,22.087,4.917,13.25,4.917    L13.25,4.917z"></path></g><g display="inline"><rect x="7.346" y="20.917" fill="#FFFFFF" width="1.375" height="2.646"></rect><rect x="9.437" y="19.542" fill="#FFFFFF" width="1.375" height="4.021"></rect><rect x="11.527" y="18.167" fill="#FFFFFF" width="1.375" height="5.396"></rect><path fill="#FFFFFF" d="M10.238,14.217c1.232,0,2.344,0.638,2.973,1.706l0.513,0.871l0.985-0.23    c0.116-0.027,0.214-0.04,0.299-0.04c0.72,0,1.295,0.566,1.311,1.289l0.029,1.346h1.346h2.156c1.668,0,3.025,1.357,3.025,3.025    c0,1.668-1.357,3.025-3.025,3.025H6.65c-1.668,0-3.025-1.357-3.025-3.025c0-1.333,0.899-2.526,2.186-2.902l1.053-0.307    l-0.065-1.095l-0.006-0.087c-0.003-0.041-0.007-0.081-0.007-0.122C6.786,15.766,8.335,14.217,10.238,14.217 M10.238,12.842    c-2.666,0-4.827,2.161-4.827,4.827c0,0.098,0.009,0.195,0.015,0.292c-1.829,0.534-3.176,2.227-3.176,4.222    c0,2.42,1.98,4.4,4.4,4.4h13.2c2.42,0,4.4-1.98,4.4-4.4c0-2.42-1.98-4.4-4.4-4.4h-2.156c-0.031-1.459-1.219-2.634-2.686-2.634    c-0.212,0-0.415,0.03-0.613,0.076C13.557,13.801,12.011,12.842,10.238,12.842L10.238,12.842z"></path></g></g><g display="none"><g display="inline"><circle fill="#FFFFFF" cx="12.917" cy="17.417" r="16"></circle></g><g display="inline"><rect x="7.013" y="17.417" fill="#FFFFFF" width="1.375" height="2.646"></rect><rect x="9.103" y="16.042" fill="#FFFFFF" width="1.375" height="4.021"></rect><rect x="11.193" y="14.667" fill="#FFFFFF" width="1.375" height="5.396"></rect><path fill="#FFFFFF" d="M9.905,10.717c1.232,0,2.344,0.638,2.973,1.706l0.513,0.871l0.985-0.23c0.116-0.027,0.214-0.04,0.299-0.04    c0.72,0,1.295,0.566,1.311,1.289l0.029,1.346h1.346h2.156c1.668,0,3.025,1.357,3.025,3.025c0,1.668-1.357,3.025-3.025,3.025h-13.2    c-1.668,0-3.025-1.357-3.025-3.025c0-1.333,0.899-2.526,2.186-2.902l1.053-0.307l-0.065-1.095l-0.006-0.087    c-0.003-0.041-0.007-0.081-0.007-0.122C6.453,12.266,8.001,10.717,9.905,10.717 M9.905,9.342c-2.666,0-4.827,2.161-4.827,4.827    c0,0.098,0.009,0.195,0.015,0.292c-1.829,0.534-3.176,2.227-3.176,4.222c0,2.42,1.98,4.4,4.4,4.4h13.2c2.42,0,4.4-1.98,4.4-4.4    c0-2.42-1.98-4.4-4.4-4.4h-2.156c-0.031-1.459-1.219-2.634-2.686-2.634c-0.212,0-0.415,0.03-0.613,0.076    C13.223,10.301,11.678,9.342,9.905,9.342L9.905,9.342z"></path></g></g><g display="none"><rect x="7.412" y="17.752" display="inline" fill="#FFFFFF" width="2" height="3.849"></rect><rect x="10.453" y="15.752" display="inline" fill="#FFFFFF" width="2" height="5.849"></rect><rect x="13.493" y="13.752" display="inline" fill="#FFFFFF" width="2" height="7.849"></rect><path display="inline" fill="#FFFFFF" d="M11.619,8.006c1.792,0,3.409,0.928,4.324,2.482l0.747,1.267l1.432-0.335   c0.169-0.04,0.311-0.059,0.436-0.059c1.047,0,1.884,0.823,1.907,1.874l0.042,1.957h1.958H25.6c2.426,0,4.4,1.974,4.4,4.4   s-1.974,4.4-4.4,4.4H6.4c-2.426,0-4.4-1.974-4.4-4.4c0-1.939,1.308-3.675,3.18-4.222l1.531-0.447l-0.095-1.592l-0.008-0.127   c-0.004-0.059-0.01-0.118-0.01-0.178C6.598,10.259,8.851,8.006,11.619,8.006 M11.619,6.006c-3.878,0-7.021,3.144-7.021,7.021   c0,0.143,0.013,0.283,0.021,0.424C1.959,14.229,0,16.691,0,19.594c0,3.52,2.88,6.4,6.4,6.4h19.2c3.52,0,6.4-2.88,6.4-6.4   c0-3.52-2.88-6.4-6.4-6.4h-3.136c-0.045-2.123-1.773-3.832-3.906-3.832c-0.308,0-0.604,0.044-0.891,0.111   C16.446,7.401,14.198,6.006,11.619,6.006L11.619,6.006z"></path></g></svg>