<svg height='100px' width='100px'  fill="#000000" xmlns="http://www.w3.org/2000/svg" xmlns:xlink="http://www.w3.org/1999/xlink" version="1.1" x="0px" y="0px" viewBox="0 0 100 100" enable-background="new 0 0 100 100" xml:space="preserve"><path d="M70.468,49.037c-0.142,0-0.28,0.017-0.422,0.02V23.117c0-7.112-13.349-12.684-30.389-12.684  c-17.042,0-30.391,5.571-30.391,12.684v49.607c0,7.111,13.349,12.682,30.391,12.682c5.811,0,11.445-0.666,16.296-1.925  c0.017-0.004,0.027-0.017,0.043-0.021c3.682,3.763,8.805,6.106,14.472,6.106c11.175,0,20.266-9.09,20.266-20.264  C90.733,58.128,81.643,49.037,70.468,49.037z M39.657,12.434c16.981,0,28.389,5.524,28.389,10.684  c0,5.159-11.407,10.683-28.389,10.683c-16.982,0-28.391-5.523-28.391-10.683C11.267,17.958,22.675,12.434,39.657,12.434z   M11.267,27.72c4.329,4.771,15.26,8.08,28.391,8.08c13.129,0,24.06-3.309,28.389-8.08v11.935c0,5.158-11.407,10.68-28.389,10.68  c-16.982,0-28.391-5.522-28.391-10.68V27.72z M11.267,44.256c4.329,4.77,15.26,8.078,28.391,8.078  c13.129,0,24.06-3.308,28.389-8.078v4.943c-8.875,1.067-16.108,7.898-17.559,16.836c-3.442,0.553-7.083,0.836-10.83,0.836  c-16.982,0-28.391-5.524-28.391-10.684V44.256z M39.657,83.406c-16.982,0-28.391-5.523-28.391-10.682V60.791  c4.329,4.771,15.26,8.08,28.391,8.08c3.651,0,7.202-0.27,10.584-0.781c-0.024,0.404-0.037,0.81-0.037,1.213  c0,4.702,1.624,9.023,4.32,12.465C50.047,82.836,44.937,83.406,39.657,83.406z M70.468,87.566c-10.07,0-18.264-8.193-18.264-18.264  c0-0.759,0.047-1.523,0.139-2.271c1.131-9.118,8.922-15.994,18.125-15.994c10.071,0,18.266,8.194,18.266,18.266  C88.733,79.373,80.539,87.566,70.468,87.566z M81.463,67.563c0.001-0.037,0.001-0.073,0.001-0.11c0-4.993-4.063-9.056-9.057-9.056  c-3.903,0-7.363,2.542-8.585,6.173c-0.336-0.055-0.674-0.082-1.012-0.082c-3.521,0-6.386,2.864-6.386,6.386  c0,3.371,2.46,5.636,6.121,5.636H79.9c2.543,0,4.611-2.069,4.611-4.612C84.512,69.938,83.252,68.213,81.463,67.563z M79.9,74.51  H62.546c-2.58,0-4.121-1.359-4.121-3.636c0-2.418,1.968-4.386,4.386-4.386c0.469,0,0.939,0.078,1.399,0.233  c0.268,0.089,0.565,0.063,0.814-0.08c0.247-0.142,0.423-0.382,0.482-0.661c0.686-3.234,3.588-5.583,6.9-5.583  c3.891,0,7.057,3.165,7.057,7.056c0,0.259-0.016,0.515-0.043,0.764c-0.059,0.536,0.318,1.022,0.852,1.1  c1.276,0.184,2.239,1.293,2.239,2.581C82.512,73.338,81.34,74.51,79.9,74.51z"></path></svg>