<svg height='100px' width='100px'  fill="#000000" xmlns="http://www.w3.org/2000/svg" viewBox="0 0 57 43.5" x="0px" y="0px"><title>Asset 13</title><g data-name="Layer 2"><g><path d="M34.5,37H13a13.071,13.071,0,0,1-.171-26.139,16.949,16.949,0,0,1,4.743.7C18.23,5.048,23.329,0,29.5,0c6.687,0,11.925,5.563,11.925,12.666v.387c0,.486,0,.9-.019,1.285A10.545,10.545,0,0,1,46,13.5c6.168,0,11,5.052,11,11.5a1,1,0,0,1-2,0c0-5.327-3.953-9.5-9-9.5-2.609,0-4.064.5-5.562,1.915a1,1,0,0,1-1.589-1.155,5.726,5.726,0,0,0,.577-3.2v-.392C39.425,6.686,35.065,2,29.5,2c-5.515,0-10,4.907-10,10.939a1.05,1.05,0,0,1-.471.88,1,1,0,0,1-.969.077,13.115,13.115,0,0,0-5.229-1.035A11.071,11.071,0,0,0,13,35H34.5a1,1,0,0,1,0,2Z"></path><path d="M45.5,43a1,1,0,0,1-1-1V38.5a1,1,0,0,1,2,0V42A1,1,0,0,1,45.5,43Z"></path><path d="M51,30.5H40a1,1,0,0,1-1-1V25a1,1,0,0,1,1-1H51a1,1,0,0,1,1,1v4.5A1,1,0,0,1,51,30.5Zm-10-2h9V26H41Z"></path><path d="M51,35H40a1,1,0,0,1-1-1V29.5a1,1,0,0,1,1-1H51a1,1,0,0,1,1,1V34A1,1,0,0,1,51,35ZM41,33h9V30.5H41Z"></path><path d="M51,39.5H40a1,1,0,0,1-1-1V34a1,1,0,0,1,1-1H51a1,1,0,0,1,1,1v4.5A1,1,0,0,1,51,39.5Zm-10-2h9V35H41Z"></path><path d="M49,43.5H42a1,1,0,0,1,0-2h7a1,1,0,0,1,0,2Z"></path></g></g></svg>