<svg height='100px' width='100px'  fill="#000000" xmlns="http://www.w3.org/2000/svg" xmlns:xlink="http://www.w3.org/1999/xlink" version="1.1" x="0px" y="0px" viewBox="0 0 262 262" enable-background="new 0 0 262 262" xml:space="preserve"><g><path d="M22.5661,82.5305c-5.1649,23.9841,11.0677,52.3199,43.9253,54.6011c0.2268,0.0159,0.4237-0.0137,0.5918-0.0769   c-0.2542,0.4446-0.0874,1.167,0.5332,1.2393c29.9203,3.489,60.0951,1.7263,90.1894,0.9238   c7.5825,0.7305,15.1594,1.5276,22.6906,2.5645c20.8834,2.8752,51.0468,6.096,53.576,29.5757   c1.3677,12.696-9.4485,18.6365-20.2518,20.8789c-10.5054,2.1804-21.2247,3.635-32.0087,4.6274   c-12.897-1.6858-25.7817-2.7427-38.8464-2.6387c-0.7773,0.0063-0.9374,1.3113-0.1326,1.3884   c8.1292,0.7795,16.2876,1.4888,24.4268,2.3306c-21.365,1.2409-79.24,3.0752-101.6047-3.0654   c-13.4625-3.6968-28.365-11.3496-26.085-27.7207c1.6885-12.1238,11.0469-26.2502,24.7125-25.2415   c1.3995,0.1033,1.8693-2.0308,0.4258-2.1855c-21.2511-2.2773-37.4181,29.478-23.6925,45.5657   c5.4613,6.4009,13.799,10.1938,22.2097,12.5491c-18.9419,2.1628-31.9767,30.594-19.2312,45.533   c15.2504,17.874,53.6921,17.0898,76.8188,17.2395c31.2355,0.2019,62.9028-0.946,93.7098-6.4988   c10.525-1.8972,22.6813-5.9551,25.3492-17.7087c2.069-9.115-2.4519-18.9548-9.2771-24.9346   c-9.7609-8.552-23.4678-10.9275-36.1108-12.8079c17.2515-2.2408,38.7427-4.1858,42.4094-20.3396   c2.069-9.115-2.4519-18.9548-9.2771-24.9346c-11.7919-10.3313-30.462-12.1825-47.9441-14.5042   c16.063,0.0149,33.5326-3.7227,46.6919-13.5483c11.145-8.3218,16.1042-23.8333,12.0112-37.1045   c-4.6954-15.2241-19.8219-25.2876-35.3347-22.449c0.2381-10.7582-7.2189-31.7593-21.9163-46.2937   c-21.896-21.6531-55.7864-24.7739-79.6833-4.7031c-10.7352,9.0165-22.0931,21.9842-24.1255,35.8521   c-4.9915-1.3208-9.8336-3.426-15.1043-3.8584C48.3394,45.6475,27.4583,59.8098,22.5661,82.5305z M237.051,229.44   c1.3677,12.696-9.4485,18.6365-20.2517,20.8789c-33.1404,6.8785-79.4492,7.4324-113.3509,6.5972   c-11.6783-0.2878-23.4921-0.8459-34.8148-3.9548c-13.4625-3.6968-28.365-11.3496-26.085-27.7207   c1.6885-12.1238,11.0469-26.2502,24.7127-25.2415c0.637,0.0471,1.0665-0.3733,1.2256-0.8557   c25.6475,5.5556,88.8922,3.4659,115.2888,0.762C204.6351,202.7686,234.5346,206.0801,237.051,229.44z M88.1788,54.2237   c1.246-0.6587,0.5948-2.8623-0.8259-2.6704c-2.8322,0.3826-5.5209,0.1143-8.1493-0.4514   c1.9326-8.3137,6.2317-14.8391,11.7986-21.1606c5.7034-6.4766,11.7979-12.7124,19.1443-17.3357   c26.745-16.8306,64.9792-6.067,81.7757,30.0234c10.0553,21.6059,7.8868,29.1353-4.7201,47.5132   c-1.6292,2.375,1.752,5.2781,3.4829,2.8997c5.2545-7.2196,10.9935-15.3134,12.1333-24.2769   c14.9648-2.5068,29.6553,8.3538,32.3877,23.4717c4.2676,23.6093-17.4455,37.2586-41.2813,41.6238   c-7.7001,1.4102-15.6511,0.8254-23.4441,0.9268c-15.342,0.199-30.6731,0.8259-46.0105,1.2129   c-20.6224,0.5203-55.653,0.467-56.9429,0.7363c0.6233-0.7463,0.2358-2.2925-1.0758-2.417   c-30.491-2.8921-47.1926-31.3623-38.5619-55.926c3.932-11.1909,12.5649-20.8438,23.5728-25.4282   c8.3778-3.489,14.6558-0.8206,22.8102,1.592C79.1721,56.0069,83.563,56.6634,88.1788,54.2237z"></path><path d="M64.5317,143.573c0.0642,0,0.0564-0.0996-0.0078-0.0996S64.4675,143.573,64.5317,143.573z"></path><path d="M211.8588,182.4529c8.6558-4.5139,16.2712-13.6992,7.8352-22.1843c-12.0177-12.088-29.7585-6.5356-27.9355-3.5745   C173.2529,169.9266,191.4684,193.0857,211.8588,182.4529z M197.5703,156.2947c5.6912-0.54,11.3488,0.1482,16.3784,3.3862   c4.3112,2.7754,8.6508,7.4243,5.0161,12.8396c-7.0249,10.4675-23.8903,13.5943-30.3628,2.8069   C183.8315,167.3767,190.1254,159.2942,197.5703,156.2947z"></path><path d="M211.8588,246.492c8.6558-4.5137,16.2712-13.699,7.8352-22.1841c-12.0193-12.0895-29.7587-6.5347-27.9355-3.5747   C173.2528,233.9655,191.4684,257.1248,211.8588,246.492z M197.5703,220.3338c5.6912-0.54,11.3488,0.1484,16.3784,3.3862   c4.3112,2.7754,8.6508,7.4246,5.0161,12.8398c-7.0252,10.4673-23.8903,13.5941-30.3628,2.8066   C183.8314,231.4158,190.1254,223.3333,197.5703,220.3338z"></path><path d="M68.9438,164.6971c1.0181-0.8108-0.4354-2.2358-1.4478-1.4253c-5.1537,4.1258-1.7624,13.547,5.6902,11.4917   c2.9749-0.8206,5.1965-3.5015,4.8538-6.6609c-0.3312-3.0525-3.2305-6.5056-6.5455-6.1697c-1.021,0.1035-1.5013,1.708-0.2891,1.9548   c6.7728,1.3782,5.9181,8.3512,0.8042,9.1011C67.1823,173.6968,65.5024,167.439,68.9438,164.6971z"></path><path d="M93.7255,163.6026c-3.2836,1.8699-4.7792,6.085-3.3308,9.6182c1.4502,3.5381,5.4595,4.7239,8.863,3.3225   c3.3276-1.3699,5.327-5.0569,3.5496-8.4431c-1.3812-2.6311-5.1726-4.9331-7.8276-3.4404   C95.1342,163.9761,94.4975,163.1629,93.7255,163.6026z M98.2137,174.8225c-5.8495,2.1157-8.4567-5.6035-4.5026-8.9868   c-0.1382,0.3008,0.0811,0.6882,0.4402,0.6372C101.8371,165.3791,103.8347,172.7895,98.2137,174.8225z"></path><path d="M113.1921,168.7952c-1.1208,4.093,2.7363,8.4626,6.8209,8.4299c4.1691-0.0334,7.701-4.2947,6.8617-8.4021   c-0.8013-3.9204-5.1863-6.6636-8.9761-5.2437c-0.6333,0.2373-0.6116,1.0205-0.1912,1.3721   C115.7171,165.0869,113.7535,166.7454,113.1921,168.7952z M119.9082,166.8233c0.4258,0.3835,1.0833-0.3237,0.6848-0.7388   c-0.479-0.4988-1.0144-0.8184-1.5725-0.9917c2.2258-0.0105,4.4707,0.8757,5.5703,2.9382c1.5195,2.8503-0.498,6.5835-3.533,7.3374   c-2.8506,0.708-5.6705-1.3391-6.3572-4.1143C114.0598,168.6641,117.1171,164.3096,119.9082,166.8233z"></path><path d="M71.4945,218.5257c-1.021,0.1035-1.5013,1.708-0.2891,1.9548c6.7728,1.3782,5.9181,8.3512,0.8042,9.1011   c-4.8273,0.708-6.5072-5.5498-3.0658-8.2917c1.0181-0.811-0.4354-2.2358-1.4478-1.4253   c-5.1537,4.1258-1.7624,13.547,5.6902,11.4917c2.9749-0.8208,5.1965-3.5015,4.8538-6.6609   C77.7088,221.6429,74.8095,218.1897,71.4945,218.5257z"></path><path d="M94.9797,221.2525c0.1545-0.6836-0.4822-1.4968-1.2542-1.0571c-3.2836,1.8699-4.7792,6.085-3.3308,9.6182   c1.4502,3.5381,5.4595,4.7239,8.863,3.3225c3.3276-1.3699,5.327-5.0569,3.5496-8.4431   C101.4261,222.0618,97.6347,219.7598,94.9797,221.2525z M98.2137,231.4153c-5.8495,2.1157-8.4567-5.6035-4.5026-8.9868   c-0.1382,0.3008,0.0811,0.6882,0.4402,0.6372c2.3845-0.3394,5.2427,0.0945,6.6416,2.2571   C102.4052,227.8155,100.7329,230.5042,98.2137,231.4153z"></path><path d="M117.8986,220.1721c-0.6333,0.2373-0.6116,1.0205-0.1912,1.3721c-1.9904,0.1355-3.954,1.7939-4.5154,3.8438   c-1.1208,4.093,2.7363,8.4626,6.8209,8.4299c4.1691-0.0334,7.701-4.2949,6.8617-8.4021   C126.0734,221.4954,121.6884,218.7522,117.8986,220.1721z M124.5908,224.6238c1.5195,2.8503-0.498,6.5833-3.533,7.3374   c-2.8506,0.708-5.6705-1.3391-6.3572-4.1143c-0.6409-2.5901,2.4165-6.9446,5.2075-4.4309c0.4258,0.3835,1.0833-0.324,0.6848-0.7388   c-0.4789-0.4988-1.0142-0.8184-1.5724-0.9917C121.2465,221.6751,123.4912,222.5613,124.5908,224.6238z"></path></g></svg>