<svg height='100px' width='100px'  fill="#000000" xmlns="http://www.w3.org/2000/svg" viewBox="0 0 60 60" x="0px" y="0px"><path d="M47.907,13.031a15.023,15.023,0,0,0-27.9-5.519,9.006,9.006,0,0,0-11.965,7.6,9.332,9.332,0,0,0,.064,2.276A11,11,0,0,0,11,39h2v2A3.6,3.6,0,0,0,13.644,43,3.586,3.586,0,0,0,13,45v8c0,4.547,8.759,7,17,7s17-2.453,17-7V45A3.586,3.586,0,0,0,46.356,43,3.6,3.6,0,0,0,47,41V39a13,13,0,0,0,.907-25.969ZM45,53c0,2.36-6.415,5-15,5s-15-2.64-15-5V48.413C18.053,50.757,24.149,52,30,52s11.947-1.243,15-3.587ZM30,50c-8.585,0-15-2.64-15-5a1.412,1.412,0,0,1,.108-.5C18.2,46.789,24.219,48,30,48s11.8-1.211,14.892-3.5A1.412,1.412,0,0,1,45,45C45,47.36,38.585,50,30,50Zm15-9c0,2.36-6.415,5-15,5s-15-2.64-15-5V36.413C18.053,38.757,24.149,40,30,40s11.947-1.243,15-3.587ZM30,38c-8.585,0-15-2.64-15-5a1.412,1.412,0,0,1,.108-.5C18.2,34.789,24.219,36,30,36s11.8-1.211,14.892-3.5A1.412,1.412,0,0,1,45,33C45,35.36,38.585,38,30,38Zm15-9c0,2.36-6.415,5-15,5s-15-2.64-15-5V24.413C18.053,26.757,24.149,28,30,28s11.947-1.243,15-3.587ZM30,26c-8.585,0-15-2.64-15-5s6.415-5,15-5,15,2.64,15,5S38.585,26,30,26ZM47,37V33a3.586,3.586,0,0,0-.644-2A3.6,3.6,0,0,0,47,29V21c0-4.547-8.759-7-17-7s-17,2.453-17,7v8a3.6,3.6,0,0,0,.644,2A3.586,3.586,0,0,0,13,33v4H11A9,9,0,0,1,9.012,19.225a1.489,1.489,0,0,0,1.136-1.774,7.241,7.241,0,0,1-.115-2.154,6.98,6.98,0,0,1,6-6.233,7.06,7.06,0,0,1,3.632.457,1.494,1.494,0,0,0,1.886-.673,13.022,13.022,0,0,1,24.417,4.818A1.482,1.482,0,0,0,47.4,15.007,11,11,0,0,1,47,37Z"></path></svg>