<svg height='100px' width='100px'  xmlns="http://www.w3.org/2000/svg" viewBox="0 0 100 100" fill="none" x="0px" y="0px"><path fill-rule="evenodd" clip-rule="evenodd" d="M60.7225 36.9716C61.3492 37.3569 61.8829 37.885 61.8993 38.5742L61.8997 38.607V61.0727C61.8997 61.778 61.3591 62.3167 60.7225 62.708C60.0576 63.1167 59.1289 63.4667 58.0255 63.7536C55.8112 64.3293 52.7795 64.6797 49.4499 64.6797C46.1202 64.6797 43.0885 64.3293 40.8742 63.7536C39.7708 63.4667 38.8421 63.1167 38.1772 62.708C37.5406 62.3167 37 61.778 37 61.0727V38.5742C37.0164 37.885 37.5505 37.3569 38.1772 36.9716C38.8421 36.563 39.7708 36.213 40.8742 35.9261C43.0885 35.3504 46.1202 35 49.4499 35C52.7795 35 55.8112 35.3504 58.0255 35.9261C59.1289 36.213 60.0576 36.563 60.7225 36.9716ZM38 38.607C38 38.4543 38.1282 38.1756 38.7009 37.8235C39.2455 37.4888 40.0667 37.1693 41.1258 36.8939C43.2366 36.3451 46.1798 36 49.4499 36C52.7199 36 55.6631 36.3451 57.7739 36.8939C58.833 37.1693 59.6542 37.4888 60.1988 37.8235C60.7715 38.1756 60.8997 38.4543 60.8997 38.607C60.8997 38.7596 60.7715 39.0383 60.1988 39.3904C59.6542 39.7251 58.833 40.0446 57.7739 40.32C55.6631 40.8688 52.7199 41.2139 49.4499 41.2139C46.1798 41.2139 43.2366 40.8688 41.1258 40.32C40.0667 40.0446 39.2455 39.7251 38.7009 39.3904C38.1282 39.0383 38 38.7596 38 38.607ZM60.7225 40.2423C60.7825 40.2054 60.8417 40.1671 60.8997 40.1276V45.7769C60.8997 45.9295 60.7715 46.2082 60.1988 46.5603C59.6542 46.895 58.833 47.2146 57.7739 47.4899C55.6631 48.0387 52.7199 48.3838 49.4499 48.3838C46.1798 48.3838 43.2366 48.0387 41.1258 47.4899C40.0667 47.2146 39.2455 46.895 38.7009 46.5603C38.1282 46.2082 38 45.9295 38 45.7769V40.1276C38.058 40.1671 38.1172 40.2054 38.1772 40.2423C38.8421 40.651 39.7708 41.0009 40.8742 41.2878C43.0885 41.8635 46.1202 42.2139 49.4499 42.2139C52.7795 42.2139 55.8112 41.8635 58.0255 41.2878C59.1289 41.0009 60.0576 40.651 60.7225 40.2423ZM60.7225 47.4122C60.7825 47.3753 60.8417 47.3371 60.8997 47.2975V53.4248C60.8997 53.5774 60.7715 53.8561 60.1988 54.2082C59.6542 54.5429 58.833 54.8625 57.7739 55.1378C55.6631 55.6866 52.7199 56.0317 49.4499 56.0317C46.1798 56.0317 43.2366 55.6866 41.1258 55.1378C40.0667 54.8625 39.2455 54.5429 38.7009 54.2082C38.1282 53.8561 38 53.5774 38 53.4248V47.2975C38.058 47.3371 38.1172 47.3753 38.1772 47.4122C38.8421 47.8209 39.7708 48.1709 40.8742 48.4577C43.0885 49.0335 46.1202 49.3838 49.4499 49.3838C52.7795 49.3838 55.8112 49.0335 58.0255 48.4577C59.1289 48.1709 60.0576 47.8209 60.7225 47.4122ZM60.7225 55.0601C60.7825 55.0232 60.8417 54.985 60.8997 54.9454V61.0727C60.8997 61.2253 60.7715 61.504 60.1988 61.8561C59.6542 62.1909 58.833 62.5104 57.7739 62.7857C55.6631 63.3345 52.7199 63.6797 49.4499 63.6797C46.1798 63.6797 43.2366 63.3345 41.1258 62.7857C40.0667 62.5104 39.2455 62.1909 38.7009 61.8561C38.1282 61.504 38 61.2253 38 61.0727V54.9454C38.058 54.985 38.1172 55.0232 38.1772 55.0601C38.8421 55.4688 39.7708 55.8188 40.8742 56.1057C43.0885 56.6814 46.1202 57.0317 49.4499 57.0317C52.7795 57.0317 55.8112 56.6814 58.0255 56.1057C59.1289 55.8188 60.0576 55.4688 60.7225 55.0601Z" fill="black"></path><path fill-rule="evenodd" clip-rule="evenodd" d="M75.666 71.3745H54.6818L54.6766 71.3745H21.0936C13.8622 71.3745 8 65.5123 8 58.2809C8 51.0495 13.8622 45.1872 21.0936 45.1872C22.3977 45.1872 23.658 45.378 24.8477 45.7335C24.7971 45.0176 24.7915 44.2993 24.7915 43.5883C24.7915 30.5608 35.3523 20 48.3798 20C59.2622 20 68.4224 27.369 71.1448 37.3887C72.5865 36.9992 74.1024 36.7915 75.666 36.7915C85.2159 36.7915 92.9575 44.5331 92.9575 54.083C92.9575 63.6328 85.2159 71.3745 75.666 71.3745ZM25.7915 43.5883C25.7915 31.1131 35.9046 21 48.3798 21C58.9463 21 67.8194 28.2558 70.2861 38.0575C70.2892 38.0907 70.2956 38.1241 70.3057 38.1573C70.3859 38.4216 70.6651 38.5708 70.9293 38.4906C72.4276 38.0361 74.0178 37.7915 75.666 37.7915C84.6636 37.7915 91.9575 45.0854 91.9575 54.083C91.9575 63.0805 84.6636 70.3745 75.666 70.3745H50.4788L50.4736 70.3745H21.0936C14.4145 70.3745 9 64.96 9 58.2809C9 51.6017 14.4145 46.1872 21.0936 46.1872C22.5593 46.1872 23.963 46.4478 25.2617 46.9246C25.521 47.0197 25.8083 46.8868 25.9034 46.6275C25.9466 46.51 25.9428 46.3866 25.9016 46.278C25.8018 45.4091 25.7915 44.5178 25.7915 43.5883Z" fill="black"></path></svg>