<svg height='100px' width='100px'  fill="#000000" xmlns="http://www.w3.org/2000/svg" xmlns:xlink="http://www.w3.org/1999/xlink" version="1.1" x="0px" y="0px" viewBox="0 0 68 68" enable-background="new 0 0 68 68" xml:space="preserve"><g><path d="M64.13501,23.99756c0-5.00439-3.98584-9.09521-8.94971-9.26465c-0.8584-4.29199-4.73193-7.43018-9.13916-7.44531   c-1.86426-3.52783-5.60107-5.79004-9.61133-5.79004c-4.51709,0-8.51172,2.74902-10.12744,6.90234   c-1.34082-0.72949-2.854-1.1123-4.4126-1.1123c-4.3916,0-8.22607,3.17188-9.08984,7.44531   c-4.9585,0.16895-8.93994,4.26025-8.93994,9.26465c0,4.41309,3.13477,8.23242,7.54735,9.09033l5.52247,0.02539v4.19434v6.62012   c0,3.26611,3.36047,6.11621,8.3252,7.63159v5.49976h-5.69702c-0.23376-1.18652-1.28033-2.08447-2.53442-2.08447   c-1.42529,0-2.58447,1.15918-2.58447,2.58447s1.15918,2.58496,2.58447,2.58496c1.25409,0,2.30066-0.89844,2.53442-2.08496h6.69702   v-6.22229c2.01703,0.52112,4.25696,0.82825,6.62646,0.86731v8.67993c-1.18652,0.23364-2.08447,1.27979-2.08447,2.53394   c0,1.42529,1.15918,2.58447,2.58447,2.58447s2.58496-1.15918,2.58496-2.58447c0-1.25415-0.89838-2.30029-2.08496-2.53394v-8.67957   c2.36951-0.03772,4.60956-0.34412,6.62695-0.86462v6.21924h6.69702c0.2337,1.18652,1.27985,2.08496,2.53394,2.08496   c1.42529,0,2.58496-1.15967,2.58496-2.58496s-1.15967-2.58447-2.58496-2.58447c-1.25409,0-2.30023,0.89795-2.53394,2.08447   h-5.69702v-5.49609c4.96814-1.5144,8.33154-4.36658,8.33154-7.63525v-6.62012v-4.06641l5.02002,0.0166   C59.97632,33.25781,64.13501,29.10352,64.13501,23.99756z M17.02856,59.14404c-0.88867,0-1.58447-0.69629-1.58447-1.58496   c0-0.87354,0.71094-1.58447,1.58447-1.58447c0.87402,0,1.58496,0.71094,1.58496,1.58447   C18.61353,58.44775,17.91724,59.14404,17.02856,59.14404z M49.74438,55.97461c0.87402,0,1.58496,0.71094,1.58496,1.58447   c0,0.88867-0.69629,1.58496-1.58496,1.58496s-1.58447-0.69629-1.58447-1.58496   C48.15991,56.68555,48.87085,55.97461,49.74438,55.97461z M17.92993,24.21826c-0.00684-0.04785-0.00488-0.10254-0.00488-0.15088   c0-4.28955,6.93555-7.77979,15.45996-7.77979c8.51904,0,15.44971,3.49023,15.44971,7.77979   c0,4.29004-6.93066,7.78027-15.44971,7.78027C27.64741,31.84766,18.19596,29.56082,17.92993,24.21826z M17.93481,27.12842   c2.90646,4.23725,10.31027,5.71924,15.4502,5.71924c5.13098,0,12.58342-1.56722,15.45996-5.7793v3.61914   c0,5.57366-9.81796,7.78027-15.4502,7.78027c-4.90918,0-13.15962-1.68189-15.09314-6.1123   C17.64599,30.85344,18.06431,29.50726,17.93481,27.12842z M34.97144,63.91797c0,0.88867-0.69629,1.58447-1.58496,1.58447   s-1.58447-0.6958-1.58447-1.58447c0-0.87354,0.71094-1.58447,1.58447-1.58447C34.2605,62.3335,34.97144,63.04443,34.97144,63.91797   z M48.84497,40.38184v3.5459c0,4.29541-6.93115,7.79004-15.4502,7.79004c-8.52441,0-15.45996-3.49463-15.45996-7.79004v-3.54639   c2.90441,4.26797,10.26357,5.70654,15.45996,5.70654C38.54023,46.08789,45.97678,44.59499,48.84497,40.38184z M33.39478,45.08789   c-8.52441,0-15.45996-3.49023-15.45996-7.78027v-3.5813c2.88071,4.22381,10.31706,5.74146,15.45996,5.74146   c5.1755,0,12.53184-1.47135,15.4502-5.7373v3.57715C48.84497,41.59766,41.91382,45.08789,33.39478,45.08789z M54.86499,32.25781   v0.5l-0.01855-0.5l-5.00146-0.01672V30.6875v-6.62012l-0.01025-0.5h-0.04749c-0.48987-4.60815-7.64813-8.27979-16.40222-8.27979   c-9.07617,0-16.45996,3.93848-16.45996,8.77979c0,0.0896,0.00208,0.1897,0.00977,0.2384c0,0.20179,0,8.18657,0,7.80872   l-5.42383-0.01733c-3.85107-0.75684-6.646-4.16309-6.646-8.09961c0-4.56006,3.70508-8.27002,8.25977-8.27002h0.52881   l0.06543-0.42383c0.61621-4,4.13086-7.01611,8.17578-7.01611c1.57959,0,3.10498,0.43994,4.41162,1.27197l0.54443,0.34668   l0.19971-0.61377c1.32227-4.06445,5.09326-6.79492,9.38428-6.79492c3.74023,0,7.21826,2.16699,8.86084,5.52002l0.15186,0.31006   l0.34375-0.03174c0.0957-0.00928,0.2002-0.0083,0.31348-0.0083c4.04883,0,7.55908,3.01563,8.16602,7.01514l0.06445,0.4248h0.52979   c4.56006,0,8.27002,3.70996,8.27002,8.27002C63.13501,28.55225,59.42505,32.25781,54.86499,32.25781z"></path><path d="M36.43677,5.2959c-3.07568,0-5.78125,1.9541-6.73291,4.86328l0.9502,0.31055   c0.81689-2.49658,3.14063-4.17383,5.78271-4.17383c2.33838,0,4.42529,1.29785,5.44678,3.38721l0.89844-0.43945   C41.59155,6.80859,39.15991,5.2959,36.43677,5.2959z"></path></g></svg>