<?xml version="1.0" encoding="UTF-8"?>
<svg width="1200pt" height="1200pt" version="1.1" viewBox="0 0 1200 1200" xmlns="http://www.w3.org/2000/svg">
 <g>
  <path d="m60 0h1080c33.137 0 60 33.137 60 60v1080c0 33.137-26.863 60-60 60h-1080c-33.137 0-60-33.137-60-60v-1080c0-33.137 26.863-60 60-60z" fill="#fff"/>
  <path d="m942.34 755.68-96.73-36.273-174.57 65.746c-22.672 9.0703-47.609 12.848-71.039 12.848-24.184 0-48.367-4.5352-71.039-12.848l-174.57-65.746-96.727 36.273c-15.871 6.0469-16.625 20.402-16.625 24.938 0 4.5352 1.5117 18.895 16.625 24.938l290.2 109.58c33.25 12.848 71.039 12.848 104.29 0l290.2-109.58c15.871-6.0469 16.625-20.402 16.625-24.938-0.003906-4.5352-1.5156-18.895-16.629-24.938z" fill="#0f4c80"/>
  <path d="m942.34 575.06-96.73-36.273-174.57 65.746c-22.672 9.0703-47.609 12.848-71.039 12.848-24.184 0-48.367-4.5352-71.039-12.848l-174.57-65.746-96.727 36.273c-15.871 6.0469-16.625 20.402-16.625 24.938s1.5117 18.895 16.625 24.938l290.2 109.58c33.25 12.848 71.039 12.848 104.29 0l290.2-109.58c15.871-6.0469 16.625-20.402 16.625-24.938-0.003906-4.5312-1.5156-18.891-16.629-24.938z" fill="#0f4c80"/>
  <path d="m257.66 445.08 290.19 109.58c33.25 12.848 71.039 12.848 104.29 0l290.2-109.58c15.871-6.0469 16.625-21.16 16.625-24.938 0-4.5352-1.5117-18.895-16.625-24.938l-290.2-109.58c-33.25-12.848-71.039-12.848-104.29 0l-290.19 109.58c-15.871 6.0469-16.625 20.402-16.625 24.938 0 3.7812 1.5078 18.895 16.625 24.941z" fill="#0f4c80"/>
 </g>
</svg>
