<svg height='100px' width='100px'  fill="#000000" xmlns="http://www.w3.org/2000/svg" xmlns:xlink="http://www.w3.org/1999/xlink" version="1.1" x="0px" y="0px" viewBox="0 0 512 512" style="enable-background:new 0 0 512 512;" xml:space="preserve"><path d="M497.3,302.9c0.8-1.5,1.8-3,2.4-4.8c0.6-1.7,1-3.7,0.5-5.5c-0.2-0.9-0.6-1.8-0.9-2.6c-0.4-0.8-0.8-1.6-1.2-2.2  c-0.8-1.5-1.6-2.7-2-4.4c-0.5-0.6-1-1.1-1.6-1.6c-0.6-0.4-1.2-0.9-1.8-1.3c-1.2-0.8-2.2-1.5-3.1-2.7c-2.7-0.8-4.9-1.7-6.7-3.6  c-2.4-0.5-4.1-2.6-6.6-2.6c-2.3-0.2-4.2-1.4-6.3-1.9c-2-0.7-3.7-2.4-6-1.4c-1.8-1.1-3.8-0.6-5.6-1c-1.6-1.4-3.6-0.5-5.2-0.7  c-8.4-0.9-15.1-0.8-19.6-0.6c-4.5,0.3-7,0.8-7,1.3s2,0.9,5.6,1.4s8.9,1.2,15.6,2.3c1.5,0.3,3,0.5,4.6,0.9c1.6,0.3,3,2.1,5,1.1  c2-1.2,3.4,1.3,5.3,1.3c2.4-1.7,3.6,1.4,5.5,1.7c2.1-0.1,3.8,1.3,5.7,2.1c1.5,1.8,3.9,1.5,5.8,2.6c1,0.4,2.1,0.6,3.1,1  c0.5,0.2,1,0.5,1.4,0.8c0.4,0.4,0.7,0.9,0.9,1.5c1.6,1.4,3.3,2.7,4.5,4.2c0.9,0.5,1.2,1.5,1.3,2.4c0.1,0.4,0,0.8,0.2,1.2  c0,0.4,0.2,0.7,0.5,1c-0.3,0.8-0.4,1.4-0.6,2.2c-0.1,0.8-0.4,1.7-1,2.4c-0.1,0.5-0.4,1-0.7,1.4c-0.2,0.2-0.4,0.4-0.6,0.6  s-0.5,0.3-0.7,0.5c-0.9,0.6-2,1.1-2.9,2c-2.1,1.2-3.9,3.3-6.7,3.6c-1.1,0.8-2.6,0.8-4,0.9c-1.4,0.2-2.7,0.5-3.7,1.9  c-2.8,0.3-5.4,1.3-8.2,2.2c-2.6,1.4-5.7,1.1-8.6,1.7c-3,0-5.7,2.2-8.9,1.2c-3,0.7-6.1-0.4-9.1,0.7c-3,1-6.2,0.7-9.3,0.2  c-3.1-0.7-6.3,0.2-9.3-0.2c-3.1,0.7-6.1-0.6-9.1-0.7c-2.9-1.1-5.8-2.2-8.9-1.2c-1.2-0.5-2.5-0.9-3.8-1.1c-0.9-0.7-1.9-1-3-1  c-1.3-0.1-2.8,0.1-4.2-0.1c-1.6,0.3-3-0.2-4.3-0.8c-0.5-0.3-1.1-0.6-1.6-0.9c-0.2-0.1-0.3-0.1-0.5-0.2c-0.5-0.2-1-0.5-1.5-0.6  c-2.4-1.6-4.9-2.5-7.6-3.3l0,0c-0.3-0.1-0.7-0.3-1.1-0.4c-0.1-0.1-0.2-0.1-0.4-0.2c-0.3-0.2-0.7-0.4-0.9-0.5c-1-0.6-1.9-1.2-2.9-1.9  c-0.6-0.8-1.2-1.5-1.7-2.1c-0.2-0.2-0.4-0.4-0.6-0.5c-0.2-0.2-0.4-0.3-0.6-0.5c-0.5-0.3-0.9-0.5-1.5-0.7c-0.1-1.1-0.2-2-0.4-2.6  c-0.2-0.7-0.6-1.2-1.2-2c0.1-0.4,0.3-0.7,0.3-1.1c0.2-0.4,0.2-0.7,0.4-1.1c0.2-0.8,0.7-1.6,1.2-2.4c0.2-0.5,0.4-1,0.7-1.4  c0.4-0.4,0.7-0.8,1.1-1.1c0.9-0.6,1.8-1.1,2.7-1.8c0.7-2.7,2.7-4.2,5.5-3.3c1.5-1.8,3.3-3.2,5.8-2.6c1.9-0.9,3.5-2.7,5.7-2.1  c1.9-0.5,3.8-0.8,5.5-1.7c1.4-2.3,3.9,0.5,5.3-1.3c1.6-1.1,3.4-0.6,5-1.1s3.1-1,4.6-0.9c1.6,1,2.8-1.4,4.2-0.7  c1.4,0,2.6-0.3,3.8-0.6c1.2-0.2,2.3-0.3,3.4-0.5c6.3-0.9,9.8-1.4,9.8-2c0-0.3-0.8-0.6-2.4-0.8c0-0.3,0-0.7-0.1-1.2  c-0.1-0.7-0.1-1.6-0.3-2.6c-0.2-1-0.4-2.2-0.7-3.6c-0.3-1.3-0.7-2.8-1.1-4.5c-0.5-1.6-1-3.4-1.7-5.3c-1.3-3.8-3.1-8.1-5.7-12.8  c-1.7-3.1-3.6-6.3-6-9.6c-2.1-3.5-4.8-6.9-8.2-9.9c-3.1-3.4-7.2-6-10.8-9.6c-1.1-0.7-2.1-1.5-3.1-2.3s-2-1.7-3.1-2.5  s-2.2-1.6-3.4-2.3c-1.2-0.7-2.4-1.3-3.8-1.6c-1.1-0.8-2.3-1.6-3.6-2.2c-1.3-0.6-2.6-1.2-4-1.6c-1.4-0.5-2.8-1-4.2-1.4  c-0.7-0.2-1.4-0.5-2.1-0.7s-1.4-0.5-2.1-0.7c-1.4-0.6-2.8-1.1-4.3-1.6c-1.4-0.6-2.9-1-4.5-1.4c-3-0.8-6.3-1.2-9.6-0.7  c-1.8-0.6-3.6-0.9-5.5-1h-0.7h-0.3c-0.1,0-0.3,0-0.4,0c-0.3,0-0.6,0.1-1,0.1c-0.2-0.5-0.4-1.1-0.6-1.7l-0.1-0.5l-0.3-1.1  c-0.2-0.7-0.3-1.5-0.4-2.2c-0.3-1.7-0.6-3.4-0.8-5.1c-0.1-0.9-0.2-1.7-0.4-2.6c-0.2-0.9-0.4-1.7-0.5-2.6c-0.2-0.9-0.4-1.7-0.7-2.6  c-0.3-0.9-0.6-1.7-1-2.5s-0.8-1.6-1.2-2.4c-0.5-0.8-1-1.5-1.6-2.3c-2.5-6.8-6.3-13.3-10.3-19.8c-2.5-2.9-4.6-6.2-6.8-9.4  c-1.1-1.6-2.3-3.2-3.6-4.8c-1.3-1.5-2.7-3-4.3-4.2c-2.9-2.8-5.7-5.7-8.8-8.5c-0.8-0.7-1.5-1.4-2.3-2.1s-1.6-1.3-2.4-1.9  c-1.6-1.3-3.4-2.4-5.2-3.4c-7.3-4.2-14.6-8.6-22.5-12.2c-4-1.7-8.3-2.7-12.6-3.8c-2.2-0.5-4.3-1-6.5-1.6c-2.2-0.5-4.3-1.2-6.5-2  c-1.1-0.1-2.3-0.2-3.4-0.3c-1.1-0.1-2.3-0.2-3.4-0.3c-2.3-0.3-4.5-0.5-6.8-0.8s-4.6-0.4-6.9-0.5c-2.3,0-4.7,0-7,0.3  c-4.7-0.8-9.5-0.4-14.2,0.7c-1.2,0.3-2.3,0.5-3.5,0.8c-1.1,0.4-2.3,0.7-3.4,1.1c-2.3,0.7-4.6,1.5-6.9,2.3c-1.1,0.5-2.2,1-3.3,1.5  s-2.2,0.9-3.4,1.3c-1.1,0.5-2.2,0.9-3.4,1.3c-1.1,0.4-2.3,0.8-3.4,1.3c-2.2,0.9-4.6,1.8-6.8,2.8c-1.1,0.5-2.2,1-3.3,1.6  s-2.2,1.2-3.2,1.8c-9,4.3-16.9,10.8-23.9,18.1c-0.9,0.9-1.7,1.9-2.6,2.8l-2.6,2.8l-2.6,2.8l-1.3,1.4l-1.2,1.5l-2.5,3l-2.3,3.1  L112,140c-0.4,0.5-0.7,1.1-1,1.6c-0.7,1.1-1.3,2.2-2,3.4c-2.3,4.6-5,9.1-7.2,13.8c-1.2,2.3-2.2,4.8-3.2,7.2  c-0.5,1.2-0.9,2.5-1.3,3.7c-0.4,1.3-0.8,2.5-1.1,3.8c-3.1,10.1-5,20.7-5.1,31.5l-0.2,4l0.1,4v0.8v0.1v0.2v0.1h-0.2h-0.1l-1.2,0.2  c-1.3,0.3-2.7,0.6-4,0.9c-2.7,0.7-5.3,1.6-7.9,2.5c-5.1,2.1-10,4.6-14.7,7.3c-4.7,2.8-9.3,5.5-14,8.3c-8.2,7.1-15.7,14.9-21.6,23.8  c-2.8,4.6-5.3,9.2-7.5,14s-3.9,9.8-5.1,14.9c-0.5,5.3-1.4,10.3-2.1,15.4c-0.7,5.1-1.1,10.3-0.6,15.4c0.4,5.1,1,10.2,2.1,15.1  c0.5,2.5,1.2,4.9,1.9,7.3c0.8,2.4,1.7,4.8,2.8,7c3.7,9.3,8.5,18.1,15,25.4c2.8,4,6,7.7,9.6,10.9c3.6,3.2,7.5,6,11.6,8.3  c3.9,2.7,8,5,12.2,6.9s8.6,3.5,12.9,5c4.4,1.1,8.8,2.4,13.2,3.1c4.4,0.8,8.9,1.3,13.3,1.1c1.1-0.1,2.2-0.1,3.3-0.2  c1-0.1,2.1-0.2,3.1-0.2c2.1-0.2,4.2-0.3,6.2-0.4c4.1-0.1,8.2,0,12.3,0.7c8.1,0,16-1.1,23.8-0.2c7.8-0.9,15.4-1.1,22.8-0.2  c7.4-0.6,14.7,0.7,21.7-0.2c7-0.6,13.9-0.1,20.6-0.2c6.7,0.1,13.1,1.4,19.4-0.2c6.3,0.7,12.3-0.2,18.1-0.2c5.8,1,11.5-0.1,16.8-0.2  c27-0.4,48.3-0.8,62.9-1.3c7.5-0.2,13.1-0.5,16.9-0.7c0.1,0.2,0.3,0.5,0.5,0.7c2.2,3.6,5.1,6.3,8.4,7.9c3.4,1.5,6.8,2.1,9.3,4.9  c3.3,0.9,6.3,2.2,9.4,3.3c3.2,0.6,6.2,1.9,9.4,2.3c3.4-0.9,6.1,1.4,9.3,1.6c3.1,0.3,6,1.3,9.1,1c3,0.3,5.9,0.8,8.9,0.5  c2.9,0.9,5.8,0.7,8.6,0c2.8,0.2,5.6-0.5,8.4-0.4c2.7-0.5,5.5,0.1,8.1-0.7c2.6-0.8,5-2.1,7.8-1.1c2.6-0.3,4.8-1.9,7.4-1.4  c2.3-1.3,4.5-2.1,7-1.7c2.1-1.2,4.7-0.5,6.6-2.1c1.9-1.3,4.2-1.6,6.1-2.4c2-0.7,4.5-0.5,5.6-2.8c2.1-0.3,3.4-2.2,5-3.3  c1.1-0.1,1.9-0.8,2.5-1.5c0.3-0.4,0.6-0.8,0.9-1.2c0.3-0.4,0.6-0.8,0.9-1.1c1.5-1.8,2.8-3.7,3.6-5.9c0.8-2.1,0.9-4.4,0.6-6.3  c-0.3-2-1.1-3.6-2-4.9s-1.8-2.3-2.7-3.1c-0.9-0.8-1.8-1.4-2.5-1.9c0.5-0.3,1-0.7,1.4-1.2c0.3-0.4,0.6-0.8,0.9-1.2  c0.3-0.4,0.6-0.8,0.9-1.1c1.5-1.8,2.8-3.7,3.6-5.9c0.8-2.1,0.9-4.4,0.5-6.3c-0.3-2-1.1-3.6-2-4.9s-1.8-2.3-2.7-3.1  c-0.9-0.8-1.8-1.5-2.5-2c0.5-0.3,1-0.7,1.4-1.2c0.3-0.4,0.6-0.8,0.9-1.2c0.3-0.4,0.6-0.8,0.9-1.1c1.5-1.8,2.8-3.7,3.6-5.9  c0.8-2.1,0.9-4.4,0.6-6.3c-0.3-2-1.1-3.6-2-4.9s-1.8-2.3-2.7-3.1c-0.9-0.8-1.8-1.4-2.5-1.9c1.2-0.8,1.9-2.3,2.9-3.3  c1.6-1.7,2.9-3.7,3.6-5.8c0.8-2.1,1-4.3,0.7-6.3s-1-3.6-1.9-4.9c-0.8-1.3-1.8-2.4-2.7-3.2c-0.5-0.5-1-0.9-1.5-1.3  C494,306.9,495.6,304.9,497.3,302.9z M342.2,402.3c-11.9-0.4-29.4-0.8-51.6-1.2c-4.9-0.1-10.1-0.2-15.5-0.2  c-5.4-0.1-11-1.6-16.8-0.2c-5.8,1.5-11.9-0.6-18.1-0.2c-6.3,2.2-12.7-0.5-19.4-0.2c-6.7,0.7-13.5-0.1-20.6-0.2  c-7-1.1-14.3,0-21.7-0.2c-7.4,0.1-15,1.5-22.8-0.2c-7.8-0.2-15.7-0.2-23.8-0.2c-4.1,0.4-8.1,0.1-12.3-0.2c-2.1-0.1-4.1-0.3-6.2-0.3  c-1,0-2.1,0-3.1,0.1c-1.1,0.1-2,0.1-3,0.2c-4-0.5-8-0.9-12.1-1.5c-4-0.5-8.1-1.4-12-2.7c-4.1-0.9-8-2.5-11.7-4.5s-7.3-4.3-11-6.6  c-3.5-2.5-7-5-10.3-7.8c-3.3-2.9-6.4-6.1-8.8-9.8c-3-3.3-5-7.3-7-11.3s-3.7-8-6.4-11.8c-0.7-2.1-1.3-4.3-2-6.5  c-0.6-2.2-1.2-4.4-1.7-6.6c-1-4.4-1.9-8.9-2.3-13.6c-0.7-4.6-0.6-9.3-0.1-13.9c0.6-4.7,1.5-9.3,2.6-13.8c1.4-4.5,2.6-9.1,4.3-13.6  s3.9-8.8,7.1-12.5c2.5-4.1,5.6-7.8,9-11.3s7-6.7,10.5-10.1c7.1-6.8,16.3-11.3,25.8-14.1c2.4-0.6,4.8-1.3,7.2-1.9  c1.2-0.3,2.4-0.6,3.6-0.8l0.9-0.2l0.3-0.1c0.2,0,0.4-0.1,0.5-0.1l0.9-0.2l3.6-0.6l3.6-0.6h0.1v-0.1v-0.2V222v-0.9l-0.1-1.8  c-0.1-2.2-0.2-4.4-0.3-6.5l-0.2-3.7c0-1.2,0.1-2.5,0.1-3.7c-0.2-2.5,0-5,0.1-7.4c0.1-1.2,0.3-2.5,0.4-3.7c0.2-1.2,0.3-2.4,0.6-3.6  c0.5-2.4,1-4.8,1.6-7.2c0.3-1.2,0.6-2.4,0.9-3.5c0.3-1.2,0.7-2.3,1-3.5c0.4-1.1,0.9-2.3,1.4-3.4c0.5-1.1,0.9-2.2,1.4-3.3  c1-2.2,1.9-4.4,3-6.5c2-4.4,4.1-8.6,5.9-13.1c0.7-1,1.4-1.9,2.1-2.9l1-1.5l1.1-1.4c0.7-0.9,1.4-1.9,2.1-2.9l2.2-2.8l1.1-1.4l1.1-1.4  l2.2-2.7c0.8-0.9,1.6-1.8,2.3-2.6c0.8-0.9,1.5-1.8,2.4-2.6c5.8-7.5,13.7-12.8,21.9-16.9c8-4.4,16.1-8.4,24.7-10.9  c2.2-0.3,4.4-0.9,6.5-1.4c1.1-0.3,2.1-0.5,3.2-0.8l3.2-0.8c4.3-1.1,8.6-1.8,13-1.7c8.7,0.2,17,1.3,25.5,1.3c2,0.6,4,1.3,6,1.8  c2,0.6,4,1.2,5.9,1.7c3.9,1.2,7.9,2.1,11.9,3.1c7.4,3.4,14.6,6.8,21.1,11.1c7,3.7,12.5,9.3,17.7,14.6c6.6,4.1,11.6,10,13.9,17.1  c4.8,5.4,8.7,11.6,10,18.5c2.8,6.2,6,12.3,6.3,18.9c0.1,0.7,0.3,1.4,0.4,2.1l0.2,1l0.3,1.6c0.4,2.1,0.7,4.3,1.1,6.4  c2.7,0,5.5,0,8.2,0c1.7,0,3.4,0.1,5.1,0.1c3.1-0.7,6.1,0.1,8.9,1c1.4,0.5,2.8,0.9,4.1,1.4c1.4,0.4,2.8,0.7,4.2,0.7  c5.7,0.9,10.5,3.7,15.2,5.9c4.8,2.1,9.3,4.6,12.9,7.7c0.4,0.5,0.8,0.9,1.2,1.3c0.4,0.4,0.9,0.8,1.3,1.2c0.9,0.7,1.9,1.3,2.9,2  c1.9,1.2,3.8,2.6,5.1,4.4c3,3.1,5.8,6.2,8.3,9.2c2.4,3,4.4,6.1,6.2,8.9c2.7,4.3,4.7,8.4,6.2,12c0.8,1.8,1.4,3.5,2,5  c0.6,1.6,1,3,1.5,4.2c0.4,1.3,0.8,2.4,1.1,3.4c0.3,1,0.5,1.8,0.7,2.5c0.1,0.3,0.2,0.6,0.3,0.9c-1.7-0.2-4-0.4-6.9-0.5  c-1.1,0-2.2,0-3.5,0c-1.3-0.3-2.6-0.3-3.9,0.1c-1.4-0.1-2.8,0.8-4.4,0.2c-1.5,0.6-3.3-1-4.8,0.4c-1.8-0.6-3.4,0.8-5.2,0.7  c-1.9-0.1-4.1-1.1-5.6,1c-2.3-1.1-3.9,1.1-6,1.4c-2.1,0.4-4.9-0.9-6.3,1.9c-2.2,0.5-4.3,1.7-6.6,2.6c-0.9,1-2.1,1.3-3.3,1.7  c-0.6,0.2-1.2,0.4-1.8,0.7c-0.6,0.3-1.1,0.7-1.5,1.3c-1,0.9-2.2,1.5-3.4,2.3c-0.6,0.4-1.2,0.9-1.7,1.4s-1,1.2-1.3,1.9  c-0.7,1.4-1.5,2.7-2.3,4.2c-0.4,0.7-0.7,1.5-1.1,2.3c-0.3,0.9-0.6,1.7-0.7,2.6s0,1.9,0.2,2.8c0.1,0.5,0.3,0.9,0.4,1.3l0.2,0.6  l0.3,0.6c0.7,1.7,1.5,3.1,1.8,5c0.7,0.5,1.2,1.2,1.8,1.8c0.4,0.4,0.7,0.9,1.1,1.3c-0.3,0.3-0.6,0.6-0.9,0.9c-0.7,0.7-1.3,1.3-2,2.1  c-1.3,1.5-2.6,3.4-3,5.6c-0.7,2.2-0.9,4.6-0.5,6.9s1.3,4.5,2.6,6.2c1,1.7,2.1,3.2,3.3,4.4c-0.8,0.9-1.7,1.8-2.6,2.8  c-1.3,1.5-2.5,3.4-2.9,5.7c-0.7,2.2-0.8,4.7-0.3,7s1.4,4.4,2.7,6.1c0.9,1.5,2,2.9,3.2,4.1c-0.8,0.9-1.7,1.8-2.6,2.8  c-1.3,1.5-2.5,3.4-2.9,5.7c-0.7,2.2-0.8,4.6-0.3,6.9c0.4,2.3,1.4,4.4,2.7,6.1c0.9,1.5,2,2.9,3.1,4.1c-0.8,0.9-1.7,1.8-2.6,2.8  c-1.3,1.5-2.5,3.4-2.9,5.7c-0.7,2.2-0.8,4.6-0.3,6.9c0.3,1.4,0.8,2.7,1.4,3.9C351.1,402.6,347.2,402.4,342.2,402.3z M493.5,392.7  c0.7,2.1,0.6,4.7-0.9,7c-0.7,1.1-1.5,2.1-2.6,3.1c-0.3,0.3-0.6,0.4-1,0.6s-0.7,0.3-1.1,0.5c-0.7,0.3-1.4,0.8-1.6,1.8  c-0.2,1.1-1.1,1.4-2,1.7c-0.9,0.2-1.9,0.3-2.6,0.9c-0.3,1.4-1.2,1.7-2.2,1.8c-1,0.1-2.1-0.1-3,0.4c-1.6,1.4-3.7,1.4-5.8,1.9  c-2.3-0.4-4.1,1.2-6.2,1.6c-2.1,0.6-4.1,2.5-6.7,1.3c-2.3,0.2-4.7,0.7-7.1,1c-2.3,1.1-5-0.6-7.4,0.7c-2.6-0.6-5.1,0.5-7.7,0.4  c-2.6,1-5.3-0.3-8,0.1c-2.7-0.2-5.5,0.8-8.2-0.2c-2.8,0.3-5.4-2.5-8.4-0.6c-2.8-0.9-5.6-0.9-8.6-1.1c-3,0.3-5.7-1.1-8.6-1.6  c-2.8-1.1-6.1,0-8.6-2.2c-3-0.5-5.3-2.7-8.4-3s-5.6-2.1-7.7-4c-1-1-2.1-1.8-3.1-2.6c-1-0.8-1.9-1.6-2.5-2.6c-1-0.7-1.3-1.7-1.4-2.6  c0-0.9,0.2-1.6,0.3-2.5c1.2-1.4,2.8-2.4,3.7-5.2c0.2-0.1,0.2,0,0.2,0h0.1c0.1,0,0.1,0,0.2,0s0.1,0,0.2-0.1c0.1,0,0.1,0,0.2-0.1  c0.1,0,0.1,0,0.2-0.1l1.1,0.5c0.6,0.1,1.1,0.2,1.7,0.3c1.1,0.6,2.1,1.3,3,2.3c3.3,0.9,6.3,2.2,9.4,3.3c3.2,0.6,6.2,1.9,9.4,2.3  c0.7-0.2,1.4-0.2,2.1-0.2c0.1,0.1,0.3,0.1,0.4,0.2c1.3,0.6,2.7,1.2,4.1,1.5c0.9,0.2,1.8,0.2,2.7,0.1l0,0c1.2,0.1,2.4,0.3,3.5,0.5  c1.1,0.4,2.3,0.5,3.4,0.5c0.7,0,1.4,0,2.1,0c3,0.3,5.9,0.8,8.9,0.5c2.9,0.9,5.8,0.7,8.6,0c2.8,0.2,5.6-0.5,8.4-0.4  c2.7-0.5,5.5,0.1,8.1-0.7c2.6-0.8,5-2.1,7.8-1.1c2.6-0.3,4.8-1.9,7.4-1.4c2.3-1.3,4.5-2.1,7-1.7c2.1-1.2,4.7-0.5,6.6-2.1  c1.9-1.3,4.2-1.6,6.1-2.4c2-0.7,4.5-0.5,5.6-2.8c1.7-0.3,2.9-1.6,4.1-2.6c0.5,0.5,1,1.1,1.6,1.9  C491.6,388.8,492.8,390.6,493.5,392.7z M493.5,367.1c0.7,2.1,0.6,4.7-0.9,7c-0.7,1.1-1.5,2.1-2.6,3.1c-0.2,0.3-0.6,0.4-1,0.6  s-0.7,0.3-1.1,0.5c-0.7,0.3-1.4,0.8-1.6,1.8c-0.2,1.1-1.1,1.4-2,1.7c-0.9,0.2-1.9,0.3-2.6,0.9c-0.3,1.4-1.2,1.7-2.2,1.8  c-1,0.1-2.1-0.1-3,0.4c-1.6,1.4-3.7,1.4-5.8,1.9c-2.3-0.4-4.1,1.2-6.2,1.6c-1.1,0.3-2.1,1-3.2,1.4c-0.6,0-1.1,0.1-1.7,0.3  c-0.5,0-1.1-0.1-1.7-0.4c-1.4,0.1-2.9,0.4-4.3,0.6c-0.1,0-0.3,0-0.4,0.1c-0.8,0.1-1.5,0.2-2.3,0.4c-0.2,0.1-0.4,0.1-0.6,0.2  c-0.5,0-1,0-1.4,0.2c-1.8,0-3.7-0.6-5.4,0.3c-0.9-0.2-1.7-0.4-2.5-0.1c-1.7,0.1-3.4,0.6-5.2,0.6c-2.6,1-5.3-0.3-8,0.1  c-1.5-0.1-3,0.1-4.5,0.2c-1-0.2-2.1-0.4-3.1-0.3c-0.2-0.1-0.4-0.1-0.6-0.2c-2.8,0.3-5.4-2.5-8.4-0.6c-2.8-0.9-5.6-0.9-8.6-1.1  c-0.9,0.1-1.8,0-2.7-0.1c-1.1-0.4-2.1-0.7-3.2-0.8c-0.2-0.1-0.4-0.1-0.6-0.2c-1.1-1.2-2.3-1.6-3.6-1.7c-1.3-0.1-2.8,0.1-4.2-0.1  c-0.4,0.1-0.9,0.1-1.3,0.1c-0.6-0.2-1.1-0.5-1.7-1c-2.3-0.4-4.2-1.8-6.3-2.5c-1.9-1.1-4-1.8-6.1-2.5c-0.3-0.1-0.7-0.2-1-0.3  c-0.6-0.3-1.2-0.7-1.8-1c-0.1-0.1-0.2-0.1-0.3-0.2c-0.2-0.2-0.4-0.3-0.6-0.5c-1-1-2.1-1.8-3.1-2.6c-1-0.8-1.9-1.6-2.5-2.6  c-1-0.7-1.3-1.7-1.4-2.6c0-0.9,0.2-1.6,0.3-2.5c1.3-1.4,2.8-2.4,3.7-5.2l0.1-0.1l0,0c0,0,0,0,0.1,0h0.1c0.1,0,0.1,0,0.2,0  s0.1,0,0.2-0.1c0.1,0,0.1,0,0.2-0.1c0.1,0,0.1,0,0.1-0.1l1.1,0.5c0.6,0.1,1.2,0.2,1.8,0.3c1,0.6,2,1.2,2.8,2.2  c3.3,0.9,6.3,2.2,9.4,3.3c3.2,0.6,6.2,1.9,9.4,2.3c0.7-0.2,1.4-0.2,2-0.2c0.2,0.1,0.3,0.1,0.5,0.2c1.3,0.6,2.7,1.2,4.1,1.5  c0.9,0.2,1.8,0.2,2.8,0.1c1.1,0.1,2.3,0.3,3.4,0.5c1.2,0.4,2.4,0.6,3.6,0.5c0.7,0,1.3,0,2,0c3,0.3,5.9,0.8,8.9,0.5  c2.9,0.9,5.8,0.7,8.6,0c2.8,0.2,5.6-0.5,8.4-0.4c2.7-0.5,5.5,0.1,8.1-0.7c2.6-0.8,5-2.1,7.8-1.1c2.6-0.3,4.8-1.8,7.4-1.4  c2.3-1.3,4.5-2.1,7-1.7c2.1-1.2,4.7-0.5,6.6-2.1c1.9-1.3,4.2-1.6,6.1-2.4c2-0.7,4.5-0.5,5.6-2.8c1.7-0.3,2.9-1.5,4.1-2.6  c0.5,0.5,1,1.2,1.6,1.9C491.6,363.2,492.8,364.9,493.5,367.1z M493.5,341.5c0.3,1.1,0.5,2.2,0.3,3.4c-0.1,1.2-0.5,2.4-1.3,3.6  c-0.7,1.1-1.5,2.1-2.6,3.1c-0.3,0.3-0.6,0.4-1,0.6s-0.7,0.3-1.1,0.5c-0.7,0.3-1.4,0.8-1.6,1.8c-0.2,1.1-1.1,1.4-2,1.6  s-1.9,0.3-2.6,0.9c-0.3,1.4-1.2,1.7-2.2,1.8c-1,0.1-2.1-0.1-3,0.4c-1.6,1.4-3.7,1.4-5.8,1.9c-2.3-0.4-4.1,1.2-6.2,1.6  c-1.1,0.3-2.2,1-3.4,1.4c-0.5,0-1,0.1-1.5,0.3c-0.6,0-1.2-0.1-1.8-0.4c-2.3,0.2-4.7,0.7-7.1,1c-0.2,0.1-0.4,0.2-0.6,0.2  c-0.4,0-0.9,0-1.3,0.2c-1.8,0-3.7-0.6-5.5,0.3l0,0c-0.8-0.2-1.6-0.4-2.4-0.1c-1.7,0.1-3.4,0.6-5.2,0.6c-2.6,1-5.3-0.3-8,0.1  c-1.5-0.1-3,0.1-4.5,0.2c-1-0.2-2.1-0.3-3.1-0.3c-0.2-0.1-0.4-0.1-0.6-0.2c-2.8,0.3-5.4-2.5-8.4-0.6c-2.8-0.9-5.6-0.9-8.6-1.1  c-1,0.1-1.9,0-2.9-0.2c-1-0.3-1.9-0.6-2.9-0.7c-0.3-0.1-0.5-0.2-0.8-0.2c-1.1-1.2-2.3-1.5-3.6-1.6c-1.3-0.1-2.8,0.1-4.2-0.1  c-0.4,0.1-0.8,0.1-1.1,0.1c-0.6-0.2-1.2-0.5-1.8-1c-2.4-0.4-4.3-1.9-6.5-2.6c-1.9-1-3.9-1.7-5.9-2.3c-0.3-0.1-0.7-0.2-1-0.3  c-0.7-0.3-1.2-0.7-1.8-1c-0.1,0-0.1-0.1-0.2-0.1c-0.2-0.2-0.5-0.4-0.7-0.6c-1-1-2.1-1.8-3.1-2.6c-1-0.8-1.9-1.6-2.5-2.6  c-1-0.7-1.3-1.7-1.4-2.6c0-0.9,0.2-1.6,0.3-2.5c1.3-1.4,2.8-2.4,3.7-5.2c0.1,0,0.2-0.1,0.2,0c0,0,0,0,0.1,0h0.1c0.1,0,0.1,0,0.2,0  s0.1,0,0.2-0.1c0.1,0,0.1,0,0.2-0.1h0.1l0,0c0,0-0.1-0.1,0.1,0l1.1,0.5c0.6,0.1,1.2,0.2,1.8,0.3c0.9,0.5,1.8,1.2,2.6,2.1  c3.3,0.9,6.3,2.2,9.4,3.3c3.2,0.7,6.2,1.9,9.4,2.3c0.8-0.2,1.5-0.2,2.2-0.2c0.2,0.1,0.4,0.1,0.6,0.2c1.3,0.6,2.7,1.2,4.1,1.5  c0.9,0.2,1.8,0.2,2.7,0.1c1.2,0.1,2.4,0.4,3.5,0.6c1.2,0.4,2.4,0.5,3.6,0.4c0.5,0,1.1,0,1.6,0c3,0.3,5.9,0.8,8.9,0.5  c2.9,0.9,5.8,0.7,8.6,0.1c2.8,0.2,5.6-0.5,8.4-0.3c2.7-0.5,5.5,0.1,8.1-0.7c2.6-0.8,5-2.1,7.8-1.1c2.6-0.3,4.8-1.8,7.4-1.4  c2.3-1.3,4.5-2.1,7-1.7c2.1-1.2,4.7-0.5,6.6-2.1c1.9-1.3,4.2-1.5,6.1-2.4c1-0.4,2.1-0.5,3.1-0.8s1.9-0.8,2.5-2  c1.9-0.3,3.1-1.7,4.4-2.8c0.5,0.5,1,1.2,1.7,1.9C491.6,337.5,492.9,339.3,493.5,341.5z M493.6,316c0.6,2.2,0.4,4.7-1.1,7  c-0.7,1.1-1.6,2.1-2.6,3.1c-0.6,0.5-1.4,0.7-2.1,1s-1.4,0.7-1.6,1.8c-0.3,1.1-1.1,1.5-2,1.6c-0.9,0.2-1.9,0.3-2.6,0.8  c-0.3,1.4-1.2,1.7-2.2,1.8c-1,0.1-2.1-0.1-3,0.4c-1.6,1.4-3.8,1.4-5.8,1.9c-2.3-0.5-4.1,1.2-6.3,1.6c-1.1,0.3-2.1,1-3.2,1.4  c-0.5,0-1,0.2-1.5,0.3c-0.6,0-1.3-0.1-2-0.4c-2.3,0.2-4.7,0.7-7.1,1c-0.1,0.1-0.3,0.1-0.4,0.2c-0.5,0-0.9,0.1-1.3,0.2  c-1.8,0.1-3.7-0.6-5.5,0.3c-0.8-0.2-1.6-0.4-2.4-0.1c-1.8,0.1-3.6,0.6-5.5,0.6c-2.6,1-5.3-0.3-8,0.1c-1.4-0.1-2.9,0.1-4.3,0.2  c-1.1-0.2-2.1-0.4-3.2-0.3c-0.2-0.1-0.4-0.1-0.6-0.2c-2.8,0.3-5.4-2.5-8.4-0.6c-2.8-0.9-5.6-0.9-8.6-1.1c-0.9,0.1-1.7,0-2.5-0.1  c-1-0.4-2.1-0.7-3.2-0.8c-0.2-0.1-0.4-0.1-0.6-0.2c-1.1-1.2-2.3-1.6-3.6-1.6c-1.3-0.1-2.8,0.1-4.2-0.1c-0.4,0.1-0.8,0.1-1.2,0.1  c-0.7-0.2-1.4-0.6-2-1.1c-2.3-0.4-4.2-1.8-6.3-2.6c-1.9-1-3.8-1.6-5.8-2.3c-0.3-0.1-0.7-0.2-1-0.3c0,0-0.3-0.1-0.4-0.2  c-0.2-0.1-0.3-0.2-0.5-0.3l-0.9-0.5c-0.1-0.1-0.2-0.1-0.3-0.2c-0.3-0.2-0.5-0.5-0.8-0.7c-0.5-0.5-1-1-1.5-1.4s-1.1-0.8-1.5-1.2  c-1-0.8-1.9-1.6-2.4-2.6c-1-0.7-1.3-1.7-1.3-2.5c0-0.9,0.2-1.6,0.4-2.5c0.6-0.7,1.4-1.3,2-2.1c0.3-0.4,0.7-0.8,1-1.3  c0.1-0.3,0.3-0.5,0.4-0.8c0.1-0.1,0.1-0.3,0.2-0.4c0.1,0.1,0.3,0.1,0.4,0.2c0.7,0.3,1.5,0.5,2.3,0.7s1.5,0.4,2.3,0.6  c1.6,0,3,0.6,4.4,1.3c0.7,0.4,1.3,0.8,2,1.2c0.2,0.1,0.5,0.2,0.7,0.3c0.5,0.2,1,0.5,1.5,0.6c2.7,1.7,5.8,2.3,8.9,2.6l0,0  c0.4,0.1,0.9,0.1,1.4,0.1c2.5,0.4,4.8,1.7,7.3,1.7c0.5,0.2,1,0.3,1.5,0.4c1,0.2,1.9,0.2,2.9,0.1c1.4,0.3,2.7,0.7,4.2,0.8  c0.4,0.1,0.8,0.2,1.2,0.2c0.5,0.1,1,0,1.5,0c2.8,0.4,5.6,0.6,8.4,0.6c3.2,0.4,6.5,0.7,9.8,0.3c3.3-0.6,6.5-1.7,9.8-0.3  c3.2-0.6,6.5-0.6,9.7-0.8c3.2-0.6,6.4-0.6,9.5-1.3c2.8-2.1,6.2-0.9,9.2-1.9c3-0.9,6.2-1.1,8.9-2.6c2.9-1,5.9-1.7,8.5-3.4  c3-0.5,5.6-2.1,7.7-4.3c0.2,0.2,0.4,0.5,0.6,0.7C491.8,312.1,493,313.9,493.6,316z"></path></svg>