<svg height='100px' width='100px'  fill="#000000" xmlns="http://www.w3.org/2000/svg" xmlns:xlink="http://www.w3.org/1999/xlink" version="1.1" x="0px" y="0px" viewBox="0 0 512 512" style="enable-background:new 0 0 512 512;" xml:space="preserve"><g><g><g><path d="M360.5,407.5H109.7c-53.3,0-96.7-43.4-96.7-96.8c0-23.5,8.5-46.1,24-63.8c14.5-16.5,34.1-27.6,55.6-31.5     c-0.1-2.1-0.2-4.2-0.2-6.4c0-67.3,54.7-122.1,122-122.1c29.4,0,57.8,10.6,80,29.9c21.1,18.3,35.2,43.3,40.1,70.6     c46.3,0.6,85.6,33.9,93.7,79.5c0.4,2.2-1.1,4.3-3.2,4.6c-2.2,0.4-4.3-1.1-4.6-3.2c-7.5-42.3-44.2-72.9-87.2-72.9h-2     c-2,0-3.7-1.5-4-3.4c-8.2-55.3-56.7-97-112.7-97c-62.8,0-114,51.2-114,114.1c0,3.1,0.1,6.2,0.4,9.4c0.2,2.1-1.3,4-3.4,4.3     c-43.5,6.1-76.3,43.9-76.3,87.9c0,48.9,39.8,88.8,88.7,88.8h250.8c2.2,0,4,1.8,4,4S362.7,407.5,360.5,407.5z"></path></g><g><path d="M426.7,425.9c-35.5,0-73.2-10.5-73.2-30c0-5.9,3.6-11.4,10.8-16.2c1.3-0.9,3.1-0.9,4.4,0c11.7,7.8,33.9,12.6,58,12.6     c24.1,0,46.3-4.8,58-12.6c1.3-0.9,3.1-0.9,4.4,0c7.2,4.8,10.8,10.3,10.8,16.2C500,415.4,462.3,425.9,426.7,425.9z M366.7,387.9     c-2.7,2.1-5.2,5-5.2,8.1c0,10.4,26.8,22,65.2,22c38.5,0,65.3-11.6,65.3-22c0-3.1-2.5-5.9-5.2-8.1c-13.4,7.7-36,12.4-60,12.4     C402.7,400.3,380.1,395.6,366.7,387.9z"></path></g><g><path d="M426.7,400.3c-35.5,0-73.2-10.5-73.2-30c0-5.9,3.6-11.4,10.8-16.2c1.3-0.9,3.1-0.9,4.4,0c11.6,7.7,33.8,12.5,58,12.5     c24.2,0,46.4-4.8,58-12.5c1.3-0.9,3.1-0.9,4.4,0c7.2,4.8,10.8,10.3,10.8,16.2C500,389.8,462.3,400.3,426.7,400.3z M366.7,362.3     c-2.7,2.1-5.2,5-5.2,8.1c0,10.4,26.8,22,65.2,22c38.5,0,65.3-11.6,65.3-22c0-3.1-2.5-5.9-5.2-8.1c-13.4,7.8-35.5,12.4-60,12.4     C402.2,374.6,380.1,370,366.7,362.3z"></path></g><g><path d="M426.7,374.6c-35.5,0-73.2-10.5-73.2-30c0-4.1,1.9-10.2,10.8-16.1c1.3-0.9,3.1-0.9,4.4,0c11.7,7.7,33.9,12.5,58,12.5     c24.1,0,46.4-4.8,58-12.5c1.3-0.9,3.1-0.9,4.4,0c8.9,5.9,10.8,12,10.8,16.1C500,364.1,462.3,374.6,426.7,374.6z M366.7,336.6     c-2.7,2.1-5.2,4.9-5.2,8c0,10.4,26.8,22,65.2,22c38.5,0,65.3-11.6,65.3-22c0-3.1-2.5-5.9-5.2-8c-13.4,7.8-35.6,12.4-60.1,12.4     C402.3,349,380.1,344.4,366.7,336.6z"></path></g><g><path d="M426.7,349c-35.5,0-73.2-10.5-73.2-30c0-5.9,3.5-11.3,10.5-16c1.4-0.9,3.1-0.9,4.5,0c11.6,7.8,33.9,12.6,58.2,12.6     s46.6-4.8,58.2-12.6c1.4-0.9,3.1-0.9,4.5,0c7,4.7,10.5,10.1,10.5,16C500,338.5,462.3,349,426.7,349z M366.5,311.2     c-2.6,2.1-5,4.8-5,7.9c0,10.4,26.8,22,65.2,22c38.5,0,65.3-11.6,65.3-22c0-3-2.4-5.8-5-7.9c-13.3,7.7-36,12.5-60.3,12.5     C402.5,323.6,379.8,318.9,366.5,311.2z"></path></g><g><path d="M426.7,323.6c-35.5,0-73.2-10.5-73.2-30c0-19.5,37.7-30,73.2-30c35.5,0,73.3,10.5,73.3,30     C500,313.1,462.3,323.6,426.7,323.6z M426.7,271.7c-38.4,0-65.2,11.6-65.2,22c0,10.4,26.8,22,65.2,22c38.5,0,65.3-11.6,65.3-22     C492,283.2,465.2,271.7,426.7,271.7z"></path></g></g></g></svg>