<svg height='100px' width='100px'  fill="#000000" xmlns:dc="http://purl.org/dc/elements/1.1/" xmlns:cc="http://creativecommons.org/ns#" xmlns:rdf="http://www.w3.org/1999/02/22-rdf-syntax-ns#" xmlns:svg="http://www.w3.org/2000/svg" xmlns="http://www.w3.org/2000/svg" xmlns:sodipodi="http://sodipodi.sourceforge.net/DTD/sodipodi-0.dtd" xmlns:inkscape="http://www.inkscape.org/namespaces/inkscape" version="1.1" x="0px" y="0px" viewBox="0 0 100 100"><g transform="translate(0,-952.36218)"><path style="text-indent:0;text-transform:none;direction:ltr;block-progression:tb;baseline-shift:baseline;color:#000000;enable-background:accumulate;" d="m 41.998228,968.36218 c -8.920521,0 -17.007507,1.11591 -22.936269,2.96875 -2.96438,0.92642 -5.39663,2.01265 -7.155865,3.3125 -1.66485,1.23011 -2.7598426,2.74303 -2.8748459,4.4375 -7.169e-4,0.0106 6.39e-4,0.0207 0,0.0312 a 1.0000463,1.0001 0 0 0 -0.031248,0.25 l 0,13.84375 a 1.0000463,1.0001 0 0 0 0,0.15625 l 0,13.81252 a 1.0000463,1.0001 0 0 0 0,0.1875 l 0,14 c 0,1.8131 1.1468592,3.3877 2.9060942,4.6875 1.759234,1.2998 4.191485,2.3861 7.155865,3.3125 5.928762,1.8528 14.015747,3 22.936269,3 5.990375,0 11.284552,-0.1181 16.18663,-1.0313 a 1.0020438,1.0020976 0 1 0 -0.37498,-1.9687 c -4.672709,0.8705 -9.845382,1 -15.81165,1 -8.751642,0 -16.690212,-1.1399 -22.34255,-2.9063 -2.82617,-0.8833 -5.082981,-1.9383 -6.562148,-3.0312 -1.479168,-1.0929 -2.093638,-2.1142 -2.093638,-3.0625 l 0,-10.25 c 0.319576,0.3081 0.52459,0.6555 0.906202,0.9375 1.759234,1.2998 4.191485,2.3861 7.155865,3.3125 5.928761,1.8528 14.015747,3 22.936269,3 8.920521,0 17.007506,-1.1472 22.936268,-3 2.964381,-0.9264 5.396631,-2.0127 7.155866,-3.3125 1.759234,-1.2998 2.906092,-2.8744 2.906093,-4.6875 l 0,-14.00002 0,-0.0937 0,-13.90625 c 0,-0.0321 7.15e-4,-0.0618 0,-0.0937 a 1.0000463,1.0001 0 0 0 -0.03125,-0.1875 c -0.115004,-1.69447 -1.209996,-3.20739 -2.874845,-4.4375 -1.759236,-1.29985 -4.191485,-2.38608 -7.155866,-3.3125 -5.928762,-1.85284 -14.015747,-2.96875 -22.936268,-2.96875 z m 0,2 c 8.751642,0 16.690211,1.10855 22.34255,2.875 2.826169,0.88323 5.08298,1.93833 6.562147,3.03125 1.395813,1.03133 2.027536,2.0317 2.093638,2.9375 a 1.0000463,1.0001 0 0 0 0,0.0937 c 6.27e-4,0.0215 0,0.0411 0,0.0625 0,0.94836 -0.61447,1.96958 -2.093638,3.0625 -1.479167,1.09292 -3.735978,2.14802 -6.562147,3.03125 -5.652338,1.76645 -13.590908,2.90625 -22.34255,2.90625 -8.751642,0 -16.690213,-1.1398 -22.34255,-2.90625 -2.82617,-0.88323 -5.082982,-1.93833 -6.562148,-3.03125 -1.479167,-1.09292 -2.093638,-2.11414 -2.093638,-3.0625 a 1.0000463,1.0001 0 0 0 0,-0.1875 c 0.07855,-0.89709 0.714496,-1.88724 2.093638,-2.90625 1.479167,-1.09292 3.735978,-2.14802 6.562148,-3.03125 5.652337,-1.76645 13.590907,-2.875 22.34255,-2.875 z m -30.998336,12.9375 c 0.283276,0.2628 0.576345,0.50628 0.906202,0.75 1.759234,1.29985 4.191485,2.38608 7.155865,3.3125 5.928762,1.85284 14.015748,3 22.936269,3 8.92052,0 17.007506,-1.14716 22.936268,-3 2.964381,-0.92642 5.39663,-2.01265 7.155866,-3.3125 0.329856,-0.24372 0.622925,-0.4872 0.906201,-0.75 l 0,9.90625 a 1.0000463,1.0001 0 0 0 0,0.0937 l 0,0.0625 c 0,0.94834 -0.614469,1.96958 -2.093638,3.0625 -1.479168,1.09292 -3.735978,2.14802 -6.562147,3.03125 -5.652339,1.76647 -13.59091,2.90627 -22.34255,2.90627 -8.751641,0 -16.690213,-1.1398 -22.34255,-2.90627 -2.82617,-0.88323 -5.08298,-1.93833 -6.562148,-3.03125 -1.479169,-1.09292 -2.093638,-2.11416 -2.093638,-3.0625 a 1.0000463,1.0001 0 0 0 0,-0.1875 l 0,-9.875 z m 0,14 c 0.283276,0.2628 0.576345,0.50628 0.906202,0.75 1.759233,1.29985 4.191485,2.38612 7.155865,3.31252 5.928762,1.8529 14.015747,3 22.936269,3 8.920522,0 17.007506,-1.1471 22.936268,-3 2.964381,-0.9264 5.396632,-2.01267 7.155866,-3.31252 0.329856,-0.24372 0.622925,-0.4872 0.906201,-0.75 l 0,10.06252 c 0,0.9483 -0.614469,1.9696 -2.093638,3.0625 -1.479168,1.0929 -3.735978,2.1479 -6.562147,3.0312 -5.652339,1.7664 -13.590909,2.9063 -22.34255,2.9063 -8.751641,0 -16.690212,-1.1399 -22.34255,-2.9063 -2.82617,-0.8833 -5.082981,-1.9383 -6.562148,-3.0312 -1.479168,-1.0929 -2.093638,-2.1142 -2.093638,-3.0625 a 1.0000463,1.0001 0 0 0 0,-0.125 l 0,-9.93752 z m 62.996617,19.06252 c -3.814751,-10e-5 -6.999624,2.9809 -6.999624,7 l 0,1.375 c -2.353074,0.9822 -3.999785,3.0848 -3.999785,5.625 0,1.9518 0.843589,3.5602 2.156134,4.5625 1.312546,1.0023 3.018632,1.4375 4.84349,1.4375 l 13.999248,0 c 1.824858,0 3.530944,-0.4352 4.84349,-1.4375 1.312546,-1.0023 2.156134,-2.6107 2.156134,-4.5625 0,-2.2023 -1.206201,-4.3937 -3.124832,-5.5938 -0.330125,-3.3804 -3.258433,-6.4062 -6.874631,-6.4062 l -1.718657,0 c -1.266737,-1.0921 -3.153039,-2 -5.280967,-2 z m 0,2 c 1.666578,0 3.516763,0.9232 4.28102,1.6875 a 1.0000463,1.0001 0 0 0 0.718712,0.3125 l 1.999892,0 c 2.586685,0 4.999732,2.62 4.999732,5 a 1.0000463,1.0001 0 0 0 0.56247,0.875 c 1.402174,0.7107 2.437369,2.5618 2.437369,4.125 0,1.4232 -0.518589,2.3147 -1.374927,2.9687 -0.856338,0.6539 -2.125841,1.0313 -3.624805,1.0313 l -13.999248,0 c -1.498964,0 -2.768467,-0.3774 -3.624805,-1.0313 -0.856338,-0.654 -1.374927,-1.5455 -1.374927,-2.9687 0,-1.8975 1.25253,-3.4751 3.281074,-4.0625 a 1.0000463,1.0001 0 0 0 0.718712,-0.9375 l 0,-2 c 0,-2.9983 2.18742,-5.0001 4.999731,-5 z" fill="#000000" fill-opacity="1" stroke="none" marker="none" visibility="visible" display="inline" overflow="visible"></path></g></svg>