<?xml version="1.0" encoding="UTF-8"?>
<svg width="100pt" height="100pt" version="1.1" viewBox="0 0 100 100" xmlns="http://www.w3.org/2000/svg">
 <g fill="#fff">
  <path d="m95.301 70.602-12.801-4.8008-23.102 8.6992c-3 1.1992-6.3008 1.6992-9.3984 1.6992-3.1992 0-6.3984-0.60156-9.3984-1.6992l-23.102-8.6992-12.801 4.8008c-2.1016 0.80078-2.1992 2.6992-2.1992 3.3008 0 0.60156 0.19922 2.5 2.1992 3.3008l38.398 14.5c4.3984 1.6992 9.3984 1.6992 13.801 0l38.398-14.5c2.1016-0.80078 2.1992-2.6992 2.1992-3.3008 0.003906-0.60156-0.19531-2.5039-2.1953-3.3008z"/>
  <path d="m95.301 46.699-12.801-4.8008-23.102 8.6992c-3 1.1992-6.3008 1.6992-9.3984 1.6992-3.1992 0-6.3984-0.60156-9.3984-1.6992l-23.102-8.6992-12.801 4.8008c-2.1016 0.80078-2.1992 2.6992-2.1992 3.3008s0.19922 2.5 2.1992 3.3008l38.398 14.5c4.3984 1.6992 9.3984 1.6992 13.801 0l38.398-14.5c2.1016-0.80078 2.1992-2.6992 2.1992-3.3008 0.003906-0.60156-0.19531-2.5-2.1953-3.3008z"/>
  <path d="m4.6992 29.5 38.402 14.5c4.3984 1.6992 9.3984 1.6992 13.801 0l38.398-14.5c2.1016-0.80078 2.1992-2.8008 2.1992-3.3008 0-0.60156-0.19922-2.5-2.1992-3.3008l-38.402-14.5c-4.3984-1.6992-9.3984-1.6992-13.801 0l-38.398 14.5c-2.1016 0.80078-2.1992 2.6992-2.1992 3.3008 0 0.5 0.19922 2.5 2.1992 3.3008z"/>
 </g>
</svg>
